<?xml version="1.0" encoding="UTF-8"?>
<svg xmlns="http://www.w3.org/2000/svg" version="1.1" viewBox="0 0 1236.85 520">
  <defs>
    <style>
      .cls-1 {
        fill: #00001e;
      }
    </style>
  </defs>
  <!-- Generator: Adobe Illustrator 28.6.0, SVG Export Plug-In . SVG Version: 1.2.0 Build 709)  -->
  <g>
    <g id="Layer_1">
      <g>
        <path class="cls-1" d="M704.77,255.72c1.5,1.54,2.24,3.36,2.24,5.47v67.83h46.94v-76.55c-.81-22.78-19.52-40.98-42.49-40.98h-201.41v41.93h189.19c2.19,0,4.04.76,5.53,2.3Z"/>
        <path class="cls-1" d="M753.95,342.82h-197.14l.04-28.05h136.36v-41.93h-140.64c-23.49,0-42.52,19.04-42.52,42.52v27.15c0,23.48,19.03,42.52,42.52,42.52h201.38v-43.46h0v1.25Z"/>
        <path class="cls-1" d="M301.53,340.79c-1.5-1.54-2.24-3.36-2.24-5.47v-66.25h-46.94v73.43c0,23.48,19.04,42.52,42.52,42.52h201.38v-41.93h-189.19c-2.19,0-4.04-.76-5.53-2.3Z"/>
        <path class="cls-1" d="M453.73,211.48H164.06c-67.6,0-101.41,28.97-101.41,86.92v86.62h50.71s.01-87.85.02-88.29c.6-19.96,14.97-36.47,33.93-40.35.71-.14,1.42-.27,2.14-.38,4.46-.71,9.33-1.06,14.61-1.06l285.43.02-.04,26.78h-136.36v41.93h140.64c23.49,0,42.52-19.04,42.52-42.52v-27.15c0-23.48-19.03-42.52-42.52-42.52Z"/>
        <rect class="cls-1" x="970.57" y="268.49" width="50.71" height="116.56"/>
        <path class="cls-1" d="M1071.98,211.21h-50.7v-28.98h-50.71v29h-101.41c-67.61,0-101.41,28.97-101.41,86.92s33.8,86.92,101.41,86.92h87.61v-43.46h-87.61c-6.87,0-13.03-.6-18.5-1.79-.42-.09-3.91-1-4.1-1.06-9.54-2.97-17.64-9.21-22.99-17.4-4.36-6.67-6.89-14.65-6.89-23.21s2.53-16.54,6.89-23.21c5.51-8.43,13.93-14.79,23.83-17.65.26-.08,2.84-.72,3.26-.81,5.47-1.19,11.63-1.79,18.5-1.79h101.41s101.41-.02,101.41-.02c33.8,0,50.71,14.48,50.71,43.46v86.92h50.7v-86.92c0-57.95-33.8-86.92-101.41-86.92Z"/>
      </g>
    </g>
  </g>
</svg>
